<?xml version="1.0" encoding="UTF-8"?>
<svg width="15px" height="10px" viewBox="0 0 15 10" version="1.1" xmlns="http://www.w3.org/2000/svg" xmlns:xlink="http://www.w3.org/1999/xlink">
    <title>noun-drop-down-1786994</title>
    <g id="Page-1" stroke="none" stroke-width="1" fill="none" fill-rule="evenodd">
        <g id="olameter_bidding_simulationA_v2" transform="translate(-344.000000, -306.000000)" fill="#000000" fill-rule="nonzero">
            <g id="noun-drop-down-1786994" transform="translate(344.000000, 306.000000)">
                <path d="M1.08654088,-1.29521681e-15 L13.9129674,-1.29521681e-15 C14.1877233,-0.000884258483 14.452683,0.100759583 14.653991,0.2842938 C14.8552945,0.46782346 14.9780757,0.719537034 14.9972965,0.988508494 C15.0167017,1.25766224 14.9311007,1.52379004 14.7579089,1.7333273 L8.34492777,9.60213925 L8.34492777,9.60196125 C8.13926946,9.85349254 7.82861153,10 7.5,10 C7.1713889,10 6.86069847,9.85349709 6.65507266,9.60196125 L0.242091516,1.73360501 C0.0688950622,1.52408143 -0.0167026597,1.25793084 0.00270388572,0.988786206 C0.0219275082,0.719810189 0.144705943,0.468087501 0.346009388,0.284571512 C0.547312834,0.101041852 0.812277176,-0.000605133717 1.087033,0.000283508393 L1.08654088,-1.29521681e-15 Z" id="Path"></path>
            </g>
        </g>
    </g>
</svg>