<?xml version="1.0" encoding="UTF-8"?>
<svg width="15px" height="15px" viewBox="0 0 15 15" version="1.1" xmlns="http://www.w3.org/2000/svg" xmlns:xlink="http://www.w3.org/1999/xlink">
    <title>draw-polygon-solid</title>
    <g id="Page-1" stroke="none" stroke-width="1" fill="none" fill-rule="evenodd">
        <g id="olameter_bidding_simulationA_v2" transform="translate(-343.000000, -172.000000)" fill="#000000" fill-rule="nonzero">
            <g id="draw-polygon-solid" transform="translate(343.000000, 172.000000)">
                <path d="M12.8671875,10.7142857 C14.0457589,10.7209821 15,11.6752232 15,12.8571429 C15,14.0390625 14.0390625,15 12.8571429,15 C12.0636161,15 11.3705357,14.5680804 11.0022321,13.9285714 L3.99776786,13.9285714 C3.62946429,14.5680804 2.93604911,15 2.14285714,15 C0.959263393,15 0,14.0390625 0,12.8571429 C0,12.0636161 0.430915179,11.3705357 1.07142857,11.0022321 L1.07142857,3.99776786 C0.430915179,3.62946429 0,2.93638393 0,2.14285714 C0,0.959263393 0.959263393,0 2.14285714,0 C2.93604911,0 3.62946429,0.430915179 3.99776786,1.07142857 L11.0022321,1.07142857 C11.3705357,0.430915179 12.0636161,0 12.8571429,0 C14.0390625,0 15,0.959263393 15,2.14285714 C15,3.32477679 14.0457589,4.27901786 12.8671875,4.25558036 L11.5680804,6.55915179 C11.7087054,6.84375 11.7857143,7.16183036 11.7857143,7.5 C11.7857143,7.83816964 11.7087054,8.15625 11.5680804,8.44084821 L12.8671875,10.7142857 Z M3.21428571,11.0022321 C3.5390625,11.1897321 3.81026786,11.4609375 3.99776786,11.7857143 L11.0022321,11.7857143 C11.0022321,11.7823661 11.0055804,11.7790179 11.0055804,11.7756696 L9.78348214,9.63950893 C9.73660714,9.61272321 9.68973214,9.64285714 9.64285714,9.64285714 C8.4609375,9.64285714 7.5,8.68191964 7.5,7.5 C7.5,6.31808036 8.4609375,5.35714286 9.64285714,5.35714286 C9.68973214,5.35714286 9.73660714,5.35714286 9.78348214,5.36049107 L11.0055804,3.22433036 L11.0022321,3.21428571 L3.99776786,3.21428571 C3.81026786,3.5390625 3.5390625,3.81026786 3.21428571,3.99776786 L3.21428571,11.0022321 Z" id="Shape"></path>
            </g>
        </g>
    </g>
</svg>