<?xml version="1.0" encoding="UTF-8"?>
<svg width="16px" height="15px" viewBox="0 0 16 15" version="1.1" xmlns="http://www.w3.org/2000/svg" xmlns:xlink="http://www.w3.org/1999/xlink">
    <title>noun-search-1594168</title>
    <g id="Page-1" stroke="none" stroke-width="1" fill="none" fill-rule="evenodd">
        <g id="olameter_bidding_simulationA_v2" transform="translate(-343.000000, -237.000000)" fill="#000000" fill-rule="nonzero">
            <g id="noun-search-1594168" transform="translate(343.868650, 237.000000)">
                <path d="M14.5816588,12.5612451 C15.1394471,13.1192823 15.1394471,14.0238766 14.5816588,14.5816586 C14.0238706,15.1394471 13.1192831,15.1394471 12.5612462,14.5816586 L9.61289773,11.633309 C9.40413451,11.4242969 9.0257153,11.3714779 8.76264073,11.5119885 C8.76264073,11.5119885 8.79851454,11.5035185 8.5683227,11.6074033 C7.80677763,11.9514412 6.96149513,12.143017 6.07163345,12.143017 C2.71843719,12.143017 5.40158297e-15,9.42457862 5.40158297e-15,6.07163603 C5.40158297e-15,2.71843835 2.71843719,1.77635684e-15 6.07163345,1.77635684e-15 C9.42457461,1.77635684e-15 12.1430118,2.71843835 12.1430118,6.07163603 C12.1430118,6.96449555 11.9501925,7.81252076 11.6039098,8.57610697 C11.5007718,8.80330783 11.5112374,8.76469166 11.5112374,8.76469166 C11.369732,9.02427781 11.4245408,9.4041704 11.6333104,9.61297197 L14.5816588,12.5612451 Z M6.07143575,9.46436188 C7.94510064,9.46436188 9.46423669,7.94522519 9.46423669,6.0715595 C9.46423669,4.19763871 7.94510064,2.67850202 6.07143575,2.67850202 C4.19751575,2.67850202 2.6783797,4.19763871 2.6783797,6.0715595 C2.6783797,7.94522519 4.19751575,9.46436188 6.07143575,9.46436188 Z" id="Shape"></path>
            </g>
        </g>
    </g>
</svg>